# xmcd CD database file
#
# Track frame offsets:
#	150
#	26167
#	65852
#	95168
#	122171
#	153695
#	170207
#	207037
#	247923
#	291540
#	307264
#	338743
#
# Disc length: 4703 seconds
#
# Revision: 0
# Processed by: cddbd v1.5.2PL0 Copyright (c) Steve Scherf et al.
# Submitted via: CDex 1.51
#
DISCID=c3125d0c
DTITLE=Gtrry Mulligan - Mulligan and Getz and Desmond
DYEAR=1957
DGENRE=Jazz
TTITLE0=Ballad
TTITLE1=This Cant Be Love
TTITLE2=Let's Fall In Love
TTITLE3=That Old Feeling
TTITLE4=Too Close For Comfort
TTITLE5=Anithing Goes
TTITLE6=Scrapple From The Apple
TTITLE7=I Didn't Know What Time It Was
TTITLE8=Body And Soul
TTITLE9=Standstill
TTITLE10=Wintersong
TTITLE11=Line For Lyons
EXTD=YEAR: 1957
EXTT0=
EXTT1=
EXTT2=
EXTT3=
EXTT4=
EXTT5=
EXTT6=
EXTT7=
EXTT8=
EXTT9=
EXTT10=
EXTT11=
PLAYORDER=
